<svg id="Layer_1" data-name="Layer 1" xmlns="http://www.w3.org/2000/svg" viewBox="0 0 117.53 112.49">
  <title>Bananna</title>
  <path d="M183.5,160.5c-24.39,20.56-58.78,23.12-84,7-29.09-18.59-40.33-58.43-24-92" transform="translate(-67.47 -66)" fill="#fff" stroke="#ffd255" stroke-miterlimit="10"/>
  <path d="M184.5,152.5c-5.29.31-42.36,1.86-69-27-18.45-20-21.37-43.16-22-51" transform="translate(-67.47 -66)" fill="#fff" stroke="#ffd225" stroke-miterlimit="10"/>
  <path d="M184.5,152.5l-1,8c-8.77,3.14-24.18,7-41,2-29-8.56-50.13-39.7-52-78" transform="translate(-67.47 -66)" fill="none" stroke="#ffd225" stroke-miterlimit="10"/>
  <path d="M41.5,64.5" transform="translate(-67.47 -66)" fill="none" stroke="#000" stroke-miterlimit="10"/>
  <g>
    <line x1="8.03" y1="9.5" x2="26.03" y2="8.5" fill="#aa7d00" stroke="#aa7d00" stroke-miterlimit="10"/>
    <line x1="5.03" y1="1.5" x2="8.03" y2="9.5" fill="#aa7d00" stroke="#aa7d00" stroke-miterlimit="10"/>
    <line x1="29.03" y1="0.5" x2="26.03" y2="8.5" fill="#aa7d00" stroke="#aa7d00" stroke-miterlimit="10"/>
  </g>
  <line x1="5.03" y1="1.5" x2="29.03" y2="0.5" fill="none" stroke="#aa7d00" stroke-miterlimit="10"/>
</svg>
