<svg id="Layer_1" data-name="Layer 1" xmlns="http://www.w3.org/2000/svg" viewBox="0 0 154.78 80.92">
  <title>Lemon</title>
  <g>
    <path d="M45.5,101.5l14,3a81.27,81.27,0,0,1,18-18c4.87-3.52,20.73-14.68,43-15a69.19,69.19,0,0,1,8.71.44A76,76,0,0,1,162.5,84.5a77.73,77.73,0,0,1,20.35,20.2l16.43-3.33" transform="translate(-45 -70.99)" fill="none" stroke="#fff52a" stroke-miterlimit="10"/>
    <line x1="0.5" y1="46.51" x2="0.5" y2="30.51" fill="none" stroke="#fff52a" stroke-miterlimit="10"/>
  </g>
  <g>
    <path d="M197.64,117.28,184,112.86A65.75,65.75,0,0,1,160.5,140.5a68.91,68.91,0,0,1-27,10c-6.24.94-26.83,3.7-47-9a66.83,66.83,0,0,1-25-29l-16,5" transform="translate(-45 -70.99)" fill="none" stroke="#fff52a" stroke-miterlimit="10"/>
    <line x1="154.28" y1="30.37" x2="152.64" y2="46.29" fill="none" stroke="#fff52a" stroke-miterlimit="10"/>
  </g>
  <path d="M157.5,135.5" transform="translate(-45 -70.99)" fill="none" stroke="#000" stroke-miterlimit="10"/>
  <circle cx="55" cy="12.01" r="0.5" fill="none" stroke="#fff52a" stroke-miterlimit="10"/>
  <circle cx="44" cy="54.01" r="0.5" fill="none" stroke="#fff52a" stroke-miterlimit="10"/>
  <circle cx="77" cy="57.01" r="0.5" fill="none" stroke="#fff52a" stroke-miterlimit="10"/>
  <circle cx="107" cy="22.01" r="0.5" fill="none" stroke="#fff52a" stroke-miterlimit="10"/>
  <circle cx="105" cy="39.01" r="0.5" fill="none" stroke="#fff52a" stroke-miterlimit="10"/>
  <circle cx="88" cy="66.01" r="0.5" fill="none" stroke="#fff52a" stroke-miterlimit="10"/>
  <circle cx="99" cy="58.01" r="0.5" fill="none" stroke="#fff52a" stroke-miterlimit="10"/>
  <circle cx="65" cy="30.01" r="0.5" fill="none" stroke="#fff52a" stroke-miterlimit="10"/>
  <circle cx="44" cy="29.01" r="0.5" fill="none" stroke="#fff52a" stroke-miterlimit="10"/>
  <circle cx="65" cy="65.01" r="0.5" fill="none" stroke="#fff52a" stroke-miterlimit="10"/>
  <circle cx="117" cy="30.01" r="0.5" fill="none" stroke="#fff52a" stroke-miterlimit="10"/>
  <circle cx="87" cy="23.01" r="0.5" fill="none" stroke="#fff52a" stroke-miterlimit="10"/>
  <circle cx="86" cy="41.01" r="0.5" fill="none" stroke="#fff52a" stroke-miterlimit="10"/>
  <circle cx="77" cy="12.01" r="0.5" fill="none" stroke="#fff52a" stroke-miterlimit="10"/>
  <circle cx="141" cy="39.01" r="0.5" fill="none" stroke="#fff52a" stroke-miterlimit="10"/>
  <circle cx="35" cy="41.01" r="0.5" fill="none" stroke="#fff52a" stroke-miterlimit="10"/>
  <circle cx="20" cy="30.01" r="0.5" fill="none" stroke="#fff52a" stroke-miterlimit="10"/>
  <circle cx="9" cy="38.01" r="0.5" fill="none" stroke="#fff52a" stroke-miterlimit="10"/>
  <circle cx="64" cy="49.01" r="0.5" fill="none" stroke="#fff52a" stroke-miterlimit="10"/>
  <circle cx="123" cy="46.01" r="0.5" fill="none" stroke="#fff52a" stroke-miterlimit="10"/>
  <circle cx="123" cy="54.01" r="0.5" fill="none" stroke="#fff52a" stroke-miterlimit="10"/>
</svg>
