<svg id="Layer_1" data-name="Layer 1" xmlns="http://www.w3.org/2000/svg" viewBox="0 0 461 565.32">
  <title>Orange</title>
  <path d="M663.43,117.95c1.35,0,2.67,0,4,.05,23.35.62,49.18,6.32,74.69,16.5a272.7,272.7,0,0,1,74.62,44.83c24.42,20.74,43.7,44.81,57.31,71.53A210.9,210.9,0,0,1,897,347.5a229.5,229.5,0,1,1-459,0,212,212,0,0,1,19.5-89.3,234.69,234.69,0,0,1,49.56-69.56c38.07-37.25,88.69-63.15,135.41-69.29a161.41,161.41,0,0,1,21-1.4m0-1a161.51,161.51,0,0,0-21.09,1.41C553.52,130,437,215.82,437,347.5,437,474.8,540.2,578,667.5,578S898,474.8,898,347.5C898,201.91,760,119.44,667.5,117c-1.19,0-2.55-.05-4.07-.05Z" transform="translate(-437 -12.68)" fill="#ffaa2a"/>
  <g>
    <circle cx="179.5" cy="351.82" r="3" fill="#fff"/>
    <path d="M616.5,362a2.5,2.5,0,1,1-2.5,2.5,2.5,2.5,0,0,1,2.5-2.5m0-1a3.5,3.5,0,1,0,3.5,3.5,3.5,3.5,0,0,0-3.5-3.5Z" transform="translate(-437 -12.68)"/>
  </g>
  <g>
    <circle cx="179.5" cy="351.82" r="3" fill="#fff"/>
    <path d="M616.5,362a2.5,2.5,0,1,1-2.5,2.5,2.5,2.5,0,0,1,2.5-2.5m0-1a3.5,3.5,0,1,0,3.5,3.5,3.5,3.5,0,0,0-3.5-3.5Z" transform="translate(-437 -12.68)"/>
  </g>
  <g>
    <circle cx="179.5" cy="351.82" r="3" fill="#fff"/>
    <path d="M616.5,362a2.5,2.5,0,1,1-2.5,2.5,2.5,2.5,0,0,1,2.5-2.5m0-1a3.5,3.5,0,1,0,3.5,3.5,3.5,3.5,0,0,0-3.5-3.5Z" transform="translate(-437 -12.68)"/>
  </g>
  <g>
    <ellipse cx="207" cy="256.32" rx="5" fill="#fff"/>
    <path d="M649,269h0Z" transform="translate(-437 -12.68)"/>
  </g>
  <g>
    <g>
      <circle cx="137" cy="192.32" r="1.5" fill="#ffad00"/>
      <path d="M574,204a1,1,0,1,1-1,1,1,1,0,0,1,1-1m0-1a2,2,0,1,0,2,2,2,2,0,0,0-2-2Z" transform="translate(-437 -12.68)" fill="#ffaa2a"/>
    </g>
    <g>
      <circle cx="96.5" cy="239.82" r="3" fill="#ffad00"/>
      <path d="M533.5,250a2.5,2.5,0,1,1-2.5,2.5,2.5,2.5,0,0,1,2.5-2.5m0-1a3.5,3.5,0,1,0,3.5,3.5,3.5,3.5,0,0,0-3.5-3.5Z" transform="translate(-437 -12.68)" fill="#ffaa2a"/>
    </g>
    <g>
      <circle cx="179.5" cy="351.82" r="3" fill="#ffad00"/>
      <path d="M616.5,362a2.5,2.5,0,1,1-2.5,2.5,2.5,2.5,0,0,1,2.5-2.5m0-1a3.5,3.5,0,1,0,3.5,3.5,3.5,3.5,0,0,0-3.5-3.5Z" transform="translate(-437 -12.68)" fill="#ffaa2a"/>
    </g>
    <g>
      <circle cx="239.5" cy="363.82" r="1" fill="#ffad00"/>
      <path d="M676.5,376a.5.5,0,1,1-.5.5.5.5,0,0,1,.5-.5m0-1a1.5,1.5,0,1,0,1.5,1.5,1.5,1.5,0,0,0-1.5-1.5Z" transform="translate(-437 -12.68)" fill="#ffaa2a"/>
    </g>
    <g>
      <circle cx="279" cy="264.32" r="7.5" fill="#ffad00"/>
      <path d="M716,270a7,7,0,1,1-7,7,7,7,0,0,1,7-7m0-1a8,8,0,1,0,8,8,8,8,0,0,0-8-8Z" transform="translate(-437 -12.68)" fill="#ffaa2a"/>
    </g>
    <g>
      <circle cx="372" cy="317.32" r="7.5" fill="#ffad00"/>
      <path d="M809,323a7,7,0,1,1-7,7,7,7,0,0,1,7-7m0-1a8,8,0,1,0,8,8,8,8,0,0,0-8-8Z" transform="translate(-437 -12.68)" fill="#ffaa2a"/>
    </g>
    <g>
      <circle cx="385.5" cy="388.82" r="5" fill="#ffad00"/>
      <path d="M822.5,397a4.5,4.5,0,1,1-4.5,4.5,4.51,4.51,0,0,1,4.5-4.5m0-1a5.5,5.5,0,1,0,5.5,5.5,5.5,5.5,0,0,0-5.5-5.5Z" transform="translate(-437 -12.68)" fill="#ffaa2a"/>
    </g>
    <g>
      <circle cx="305" cy="213.32" r="2.5" fill="#ffad00"/>
      <path d="M742,224a2,2,0,1,1-2,2,2,2,0,0,1,2-2m0-1a3,3,0,1,0,3,3,3,3,0,0,0-3-3Z" transform="translate(-437 -12.68)" fill="#ffaa2a"/>
    </g>
    <g>
      <circle cx="248.5" cy="182.82" r="2" fill="#ffad00"/>
      <path d="M685.5,194a1.5,1.5,0,1,1-1.5,1.5,1.5,1.5,0,0,1,1.5-1.5m0-1a2.5,2.5,0,1,0,2.5,2.5,2.5,2.5,0,0,0-2.5-2.5Z" transform="translate(-437 -12.68)" fill="#ffaa2a"/>
    </g>
    <g>
      <circle cx="215.5" cy="219.82" r="3" fill="#ffad00"/>
      <path d="M652.5,230a2.5,2.5,0,1,1-2.5,2.5,2.5,2.5,0,0,1,2.5-2.5m0-1a3.5,3.5,0,1,0,3.5,3.5,3.5,3.5,0,0,0-3.5-3.5Z" transform="translate(-437 -12.68)" fill="#ffaa2a"/>
    </g>
    <g>
      <circle cx="162.5" cy="255.82" r="6" fill="#ffad00"/>
      <path d="M599.5,263a5.5,5.5,0,1,1-5.5,5.5,5.51,5.51,0,0,1,5.5-5.5m0-1a6.5,6.5,0,1,0,6.5,6.5,6.5,6.5,0,0,0-6.5-6.5Z" transform="translate(-437 -12.68)" fill="#ffaa2a"/>
    </g>
    <g>
      <circle cx="115" cy="324.32" r="6.5" fill="#ffad00"/>
      <path d="M552,331a6,6,0,1,1-6,6,6,6,0,0,1,6-6m0-1a7,7,0,1,0,7,7,7,7,0,0,0-7-7Z" transform="translate(-437 -12.68)" fill="#ffaa2a"/>
    </g>
    <g>
      <circle cx="88" cy="374.32" r="8.5" fill="#ffad00"/>
      <path d="M525,379a8,8,0,1,1-8,8,8,8,0,0,1,8-8m0-1a9,9,0,1,0,9,9,9,9,0,0,0-9-9Z" transform="translate(-437 -12.68)" fill="#ffaa2a"/>
    </g>
    <g>
      <circle cx="110" cy="433.32" r="1.5" fill="#ffad00"/>
      <path d="M547,445a1,1,0,1,1-1,1,1,1,0,0,1,1-1m0-1a2,2,0,1,0,2,2,2,2,0,0,0-2-2Z" transform="translate(-437 -12.68)" fill="#ffaa2a"/>
    </g>
    <g>
      <circle cx="147.5" cy="471.82" r="8" fill="#ffad00"/>
      <path d="M584.5,477a7.5,7.5,0,1,1-7.5,7.5,7.51,7.51,0,0,1,7.5-7.5m0-1a8.5,8.5,0,1,0,8.5,8.5,8.5,8.5,0,0,0-8.5-8.5Z" transform="translate(-437 -12.68)" fill="#ffaa2a"/>
    </g>
    <g>
      <circle cx="189.5" cy="472.82" r="6" fill="#ffad00"/>
      <path d="M626.5,480a5.5,5.5,0,1,1-5.5,5.5,5.51,5.51,0,0,1,5.5-5.5m0-1a6.5,6.5,0,1,0,6.5,6.5,6.5,6.5,0,0,0-6.5-6.5Z" transform="translate(-437 -12.68)" fill="#ffaa2a"/>
    </g>
    <g>
      <circle cx="245" cy="449.32" r="3.5" fill="#ffad00"/>
      <path d="M682,459a3,3,0,1,1-3,3,3,3,0,0,1,3-3m0-1a4,4,0,1,0,4,4,4,4,0,0,0-4-4Z" transform="translate(-437 -12.68)" fill="#ffaa2a"/>
    </g>
    <g>
      <circle cx="178" cy="385.32" r="1.5" fill="#ffad00"/>
      <path d="M615,397a1,1,0,1,1-1,1,1,1,0,0,1,1-1m0-1a2,2,0,1,0,2,2,2,2,0,0,0-2-2Z" transform="translate(-437 -12.68)" fill="#ffaa2a"/>
    </g>
    <g>
      <circle cx="199" cy="418.32" r="2.5" fill="#ffad00"/>
      <path d="M636,429a2,2,0,1,1-2,2,2,2,0,0,1,2-2m0-1a3,3,0,1,0,3,3,3,3,0,0,0-3-3Z" transform="translate(-437 -12.68)" fill="#ffaa2a"/>
    </g>
    <g>
      <circle cx="217.5" cy="140.82" r="1" fill="#ffad00"/>
      <path d="M654.5,153a.5.5,0,1,1-.5.5.5.5,0,0,1,.5-.5m0-1a1.5,1.5,0,1,0,1.5,1.5,1.5,1.5,0,0,0-1.5-1.5Z" transform="translate(-437 -12.68)" fill="#ffaa2a"/>
    </g>
    <g>
      <circle cx="305" cy="172.32" r="7.5" fill="#ffad00"/>
      <path d="M742,178a7,7,0,1,1-7,7,7,7,0,0,1,7-7m0-1a8,8,0,1,0,8,8,8,8,0,0,0-8-8Z" transform="translate(-437 -12.68)" fill="#ffaa2a"/>
    </g>
    <g>
      <circle cx="373.5" cy="217.82" r="1" fill="#ffad00"/>
      <path d="M810.5,230a.5.5,0,1,1-.5.5.5.5,0,0,1,.5-.5m0-1a1.5,1.5,0,1,0,1.5,1.5,1.5,1.5,0,0,0-1.5-1.5Z" transform="translate(-437 -12.68)" fill="#ffaa2a"/>
    </g>
    <g>
      <circle cx="409" cy="263.32" r="0.5" fill="#ffad00"/>
      <path d="M846,275a1,1,0,1,0,1,1,1,1,0,0,0-1-1Z" transform="translate(-437 -12.68)" fill="#ffaa2a"/>
    </g>
    <g>
      <circle cx="315" cy="502.32" r="1.5" fill="#ffad00"/>
      <path d="M752,514a1,1,0,1,1-1,1,1,1,0,0,1,1-1m0-1a2,2,0,1,0,2,2,2,2,0,0,0-2-2Z" transform="translate(-437 -12.68)" fill="#ffaa2a"/>
    </g>
    <g>
      <circle cx="248.5" cy="513.82" r="2" fill="#ffad00"/>
      <path d="M685.5,525a1.5,1.5,0,1,1-1.5,1.5,1.5,1.5,0,0,1,1.5-1.5m0-1a2.5,2.5,0,1,0,2.5,2.5,2.5,2.5,0,0,0-2.5-2.5Z" transform="translate(-437 -12.68)" fill="#ffaa2a"/>
    </g>
    <g>
      <circle cx="204.5" cy="513.82" r="2" fill="#ffad00"/>
      <path d="M641.5,525a1.5,1.5,0,1,1-1.5,1.5,1.5,1.5,0,0,1,1.5-1.5m0-1a2.5,2.5,0,1,0,2.5,2.5,2.5,2.5,0,0,0-2.5-2.5Z" transform="translate(-437 -12.68)" fill="#ffaa2a"/>
    </g>
    <g>
      <circle cx="328" cy="385.32" r="1.5" fill="#ffad00"/>
      <path d="M765,397a1,1,0,1,1-1,1,1,1,0,0,1,1-1m0-1a2,2,0,1,0,2,2,2,2,0,0,0-2-2Z" transform="translate(-437 -12.68)" fill="#ffaa2a"/>
    </g>
    <g>
      <circle cx="375" cy="447.32" r="1.5" fill="#ffad00"/>
      <path d="M812,459a1,1,0,1,1-1,1,1,1,0,0,1,1-1m0-1a2,2,0,1,0,2,2,2,2,0,0,0-2-2Z" transform="translate(-437 -12.68)" fill="#ffaa2a"/>
    </g>
    <g>
      <circle cx="217" cy="277.32" r="4.5" fill="#ffad00"/>
      <path d="M654,286a4,4,0,1,1-4,4,4,4,0,0,1,4-4m0-1a5,5,0,1,0,5,5,5,5,0,0,0-5-5Z" transform="translate(-437 -12.68)" fill="#ffaa2a"/>
    </g>
    <g>
      <path d="M698,332.5a9.5,9.5,0,1,1,9.5-9.5A9.51,9.51,0,0,1,698,332.5Z" transform="translate(-437 -12.68)" fill="#ffad00"/>
      <path d="M698,314a9,9,0,1,1-9,9,9,9,0,0,1,9-9m0-1a10,10,0,1,0,10,10,10,10,0,0,0-10-10Z" transform="translate(-437 -12.68)" fill="#ffaa2a"/>
    </g>
    <g>
      <circle cx="42.5" cy="320.82" r="3" fill="#ffad00"/>
      <path d="M479.5,331a2.5,2.5,0,1,1-2.5,2.5,2.5,2.5,0,0,1,2.5-2.5m0-1a3.5,3.5,0,1,0,3.5,3.5,3.5,3.5,0,0,0-3.5-3.5Z" transform="translate(-437 -12.68)" fill="#ffaa2a"/>
    </g>
    <g>
      <circle cx="40.5" cy="372.82" r="1" fill="#ffad00"/>
      <path d="M477.5,385a.5.5,0,1,1-.5.5.5.5,0,0,1,.5-.5m0-1a1.5,1.5,0,1,0,1.5,1.5,1.5,1.5,0,0,0-1.5-1.5Z" transform="translate(-437 -12.68)" fill="#ffaa2a"/>
    </g>
  </g>
  <path d="M895.5,164.5" transform="translate(-437 -12.68)" fill="none" stroke="#ffaa2a" stroke-miterlimit="10"/>
  <g>
    <path d="M628.5,120.5c.57-3.54-22.6-3.64-31-21-5.82-12-6.07-29.45,1-33,0,0,3.65-1.48,28,20h0c24.76,26.65-48.73-86.7-82-72-10.95,4.84-8.74,31.16-8,40,.54,6.49,3.49,41.59,32,60C594.7,131.41,627.81,124.76,628.5,120.5Z" transform="translate(-437 -12.68)" fill="#00aa03" stroke="#45bf00" stroke-miterlimit="10"/>
    <path d="M628.5,120.5c-8.86-5.36-4.77-30.76,4-48,12.27-24.11,39.28-43.19,49-37,9.09,5.79,3.55,33.94-8,53C661.39,108.5,638,126.23,628.5,120.5Z" transform="translate(-437 -12.68)" fill="#00aa03" stroke="#45bf00" stroke-miterlimit="10"/>
  </g>
  <path d="M1010.5,249.5" transform="translate(-437 -12.68)" fill="none" stroke="#ffaa2a" stroke-miterlimit="10"/>
</svg>
