<svg id="Layer_1" data-name="Layer 1" xmlns="http://www.w3.org/2000/svg" viewBox="0 0 111.2 102.19">
  <title>Apple</title>
  <g>
    <line x1="58.01" y1="26.68" x2="65.26" y2="1.18" fill="none" stroke="#7f5d00" stroke-miterlimit="10"/>
    <line x1="50.76" y1="2.16" x2="64.22" y2="1.18" fill="none" stroke="#7f5d00" stroke-miterlimit="10"/>
    <line x1="54.9" y1="26.68" x2="50.76" y2="2.16" fill="none" stroke="#7f5d00" stroke-miterlimit="10"/>
  </g>
  <path d="M124.5,88.5c19.38-8.66,31.07-16,30-21-.46-2.11-3.1-3.21-5-4-7.89-3.28-19.33.43-24,9C121.72,79.43,123.91,86.72,124.5,88.5Z" transform="translate(-66.24 -61.82)" fill="#00aa31" stroke="#00aa31" stroke-miterlimit="10"/>
  <line x1="58.26" y1="26.68" x2="83.26" y2="1.68" fill="none" stroke="#00aa4d" stroke-miterlimit="10"/>
  <path d="M145.5,163.5c16.51-.37,25.18-21.55,27-26,6.41-15.64,7.05-39.38-6-49-5.28-3.89-11.51-4.53-16-5a47.21,47.21,0,0,0-26,5,59.5,59.5,0,0,0-30-5c-6.7.67-13.42,1.44-19,6-11.73,9.59-10.2,31.7-4,46,1.22,2.82,12.7,28.27,34,28,10.12-.13,17.67-6,21-9C129.11,157.19,136.18,163.71,145.5,163.5Z" transform="translate(-66.24 -61.82)" fill="#fff" stroke="#ff443f" stroke-miterlimit="10"/>
</svg>
