<svg id="Layer_1" data-name="Layer 1" xmlns="http://www.w3.org/2000/svg" viewBox="0 0 91 120.31">
  <title>Grape</title>
  <g>
    <path d="M111.5,86.5a15,15,0,1,1,15-15A15,15,0,0,1,111.5,86.5Z" transform="translate(-66 -18.69)" fill="#fff"/>
    <path d="M111.5,57A14.5,14.5,0,1,1,97,71.5,14.52,14.52,0,0,1,111.5,57m0-1A15.5,15.5,0,1,0,127,71.5,15.5,15.5,0,0,0,111.5,56Z" transform="translate(-66 -18.69)" fill="#bd00bf"/>
  </g>
  <g>
    <path d="M81.5,86.5a15,15,0,1,1,15-15A15,15,0,0,1,81.5,86.5Z" transform="translate(-66 -18.69)" fill="#fff"/>
    <path d="M81.5,57A14.5,14.5,0,1,1,67,71.5,14.52,14.52,0,0,1,81.5,57m0-1A15.5,15.5,0,1,0,97,71.5,15.5,15.5,0,0,0,81.5,56Z" transform="translate(-66 -18.69)" fill="#bd00bf"/>
  </g>
  <g>
    <path d="M141.5,86.5a15,15,0,1,1,15-15A15,15,0,0,1,141.5,86.5Z" transform="translate(-66 -18.69)" fill="#fff"/>
    <path d="M141.5,57A14.5,14.5,0,1,1,127,71.5,14.52,14.52,0,0,1,141.5,57m0-1A15.5,15.5,0,1,0,157,71.5,15.5,15.5,0,0,0,141.5,56Z" transform="translate(-66 -18.69)" fill="#bd00bf"/>
  </g>
  <g>
    <path d="M95.5,112.5a15,15,0,1,1,15-15A15,15,0,0,1,95.5,112.5Z" transform="translate(-66 -18.69)" fill="#fff"/>
    <path d="M95.5,83A14.5,14.5,0,1,1,81,97.5,14.52,14.52,0,0,1,95.5,83m0-1A15.5,15.5,0,1,0,111,97.5,15.5,15.5,0,0,0,95.5,82Z" transform="translate(-66 -18.69)" fill="#bd00bf"/>
  </g>
  <g>
    <path d="M126.5,112.5a15,15,0,1,1,15-15A15,15,0,0,1,126.5,112.5Z" transform="translate(-66 -18.69)" fill="#fff"/>
    <path d="M126.5,83A14.5,14.5,0,1,1,112,97.5,14.52,14.52,0,0,1,126.5,83m0-1A15.5,15.5,0,1,0,142,97.5,15.5,15.5,0,0,0,126.5,82Z" transform="translate(-66 -18.69)" fill="#bd00bf"/>
  </g>
  <g>
    <path d="M111.5,138.5a15,15,0,1,1,15-15A15,15,0,0,1,111.5,138.5Z" transform="translate(-66 -18.69)" fill="#fff"/>
    <path d="M111.5,109A14.5,14.5,0,1,1,97,123.5,14.52,14.52,0,0,1,111.5,109m0-1A15.5,15.5,0,1,0,127,123.5,15.5,15.5,0,0,0,111.5,108Z" transform="translate(-66 -18.69)" fill="#bd00bf"/>
  </g>
  <path d="M111.5,56.5c-1.18-1.06-8.9-8.2-8-18,1.13-12.3,15.12-21.12,24-19,3.19.76,7.81,3.43,8,7a5.26,5.26,0,0,1-3,5c-2.35.86-3.92-1.61-7-2-6-.77-11.51,7.26-12,8C108.13,45.59,111,55,111.5,56.5Z" transform="translate(-66 -18.69)" fill="#fff" stroke="#16bf00" stroke-miterlimit="10"/>
  <path d="M274.5,83.5" transform="translate(-66 -18.69)" fill="#fff" stroke="#16bf00" stroke-miterlimit="10"/>
</svg>
